
        <svg xmlns="http://www.w3.org/2000/svg" xmlns:xlink="http://www.w3.org/1999/xlink" version="1.1" width="3167.149547103521" 
        height="1316.302683440226" viewBox="0 0 3167.149547103521 1316.302683440226">
			<rect fill="#06f96f" width="3167.149547103521" height="1316.302683440226"/>
			<g transform="scale(8.357477355176039) translate(10, 10)">
				<defs id="SvgjsDefs14815"><linearGradient id="SvgjsLinearGradient14824"><stop id="SvgjsStop14825" stop-color="#7d141d" offset="0"></stop><stop id="SvgjsStop14826" stop-color="#ff1e27" offset="1"></stop></linearGradient><linearGradient id="SvgjsLinearGradient14827"><stop id="SvgjsStop14828" stop-color="#7d141d" offset="0"></stop><stop id="SvgjsStop14829" stop-color="#ff1e27" offset="1"></stop></linearGradient><linearGradient id="SvgjsLinearGradient14830"><stop id="SvgjsStop14831" stop-color="#7d141d" offset="0"></stop><stop id="SvgjsStop14832" stop-color="#ff1e27" offset="1"></stop></linearGradient></defs><g id="SvgjsG14816" featureKey="symbolContainer" transform="matrix(2.75,0,0,2.75,0.13749822974205017,0)" fill="url(#SvgjsLinearGradient14824)"><path xmlns="http://www.w3.org/2000/svg" d="M24.95 0a25 25 0 1 0 25 25 25 25 0 0 0-25-25zm0 46.91a22 22 0 1 1 22-22 22 22 0 0 1-22 21.99z"></path><path xmlns="http://www.w3.org/2000/svg" d="M24.95 3.65a21.3 21.3 0 1 0 21.3 21.3 21.33 21.33 0 0 0-21.3-21.3z"></path></g><g id="SvgjsG14817" featureKey="symbolFeature-0" transform="matrix(1,0,0,1,18.855724334716797,18.97599983215332)" fill="#eeeeee"><path xmlns="http://www.w3.org/2000/svg" d="M52.094,93.749c0.001,0,11.108-7.41,0.883-22.909c-4.773-7.235-12.596-14.971-11.701-22.63  c-1.015,0.883-1.937,1.859-2.38,2.453c-1.618,2.169-2.791,4.529-3.392,6.964c-0.697,2.823-0.515,5.795,1.102,8.686  c1.501,2.683,4.107,5.103,6.558,7.537c5.868,5.826,11.036,12.018,9.461,18.607C52.541,92.811,52.5,93.478,52.094,93.749z"></path><path xmlns="http://www.w3.org/2000/svg" d="M59.398,79.14c0.001-0.001,17.835-11.897,1.417-36.782C53.152,30.742,40.592,18.321,42.03,6.024  c-1.365,1.194-3.11,2.985-3.821,3.939c-2.598,3.482-4.481,7.271-5.446,11.181c-1.12,4.533-0.827,9.304,1.77,13.946  c2.41,4.308,6.594,8.193,10.53,12.102c9.421,9.355,17.719,19.295,15.19,29.876C60.116,77.635,60.049,78.706,59.398,79.14z"></path></g><g id="SvgjsG14818" featureKey="nameFeature-0" transform="matrix(3.1426774030448645,0,0,3.1426774030448645,158,-26.940925543574856)" fill="url(#SvgjsLinearGradient14827)"><path d="M6 40.56 c-2.36 0 -4.6 -1.12 -6 -3.04 l0.92 -0.68 c1.2 1.6 3.08 2.56 5.08 2.56 c3.4 0 6.2 -2.8 6.2 -6.24 c0 -3.56 -2.72 -6.16 -5.36 -8.72 c-2.56 -2.4 -5.16 -4.92 -5.16 -8.24 c0 -2.96 2.44 -5.4 5.4 -5.4 c1.72 0 3.36 0.84 4.4 2.24 l-0.96 0.68 c-0.8 -1.08 -2.08 -1.76 -3.44 -1.76 c-2.32 0 -4.24 1.92 -4.24 4.24 c0 2.8 2.32 5.04 4.8 7.4 c2.8 2.72 5.72 5.52 5.72 9.56 c0 4.08 -3.32 7.4 -7.36 7.4 z M23.880000000000003 37.48 l0.8 0.84 c-2.2 2.2 -5.8 2.2 -8.04 0 c-2.2 -2.2 -2.2 -5.8 0 -8.04 c2.24 -2.2 5.84 -2.2 8.04 0 l-0.8 0.84 c-1.76 -1.76 -4.64 -1.76 -6.4 0 s-1.76 4.6 0 6.36 s4.64 1.76 6.4 0 z M31.16 29.8 c-2.48 0 -4.52 2 -4.52 4.52 c0 2.48 2.04 4.48 4.52 4.48 s4.52 -2 4.52 -4.48 c0 -2.52 -2.04 -4.52 -4.52 -4.52 z M31.16 28.64 c3.12 0 5.68 2.52 5.68 5.68 c0 3.12 -2.56 5.68 -5.68 5.68 c-3.16 0 -5.68 -2.56 -5.68 -5.68 c0 -3.16 2.52 -5.68 5.68 -5.68 z M44.12 29.8 c-2.48 0 -4.52 2 -4.52 4.52 c0 2.48 2.04 4.48 4.52 4.48 s4.52 -2 4.52 -4.48 c0 -2.52 -2.04 -4.52 -4.52 -4.52 z M44.12 28.64 c3.12 0 5.68 2.52 5.68 5.68 c0 3.12 -2.56 5.68 -5.68 5.68 c-3.16 0 -5.68 -2.56 -5.68 -5.68 c0 -3.16 2.52 -5.68 5.68 -5.68 z M57.03999999999999 38.8 l0 1.2 c-3.12 0 -5.68 -2.56 -5.68 -5.68 l0 -4.52 l-1.16 0 l0 -1.16 l1.16 0 l0 -17.24 l1.16 0 l0 17.24 l4.52 0 l0 1.16 l-4.52 0 l0 4.52 c0 2.48 2.04 4.48 4.52 4.48 z M60.559999999999995 40.12 l0 -1.16 c1.08 0 1.92 -0.84 1.92 -1.92 c0 -1.16 -0.88 -2 -1.84 -2.92 c-1 -0.96 -2 -1.92 -2 -3.28 c0 -1.32 1.04 -2.36 2.36 -2.36 l0 1.16 c-0.68 0 -1.2 0.52 -1.2 1.2 c0 0.88 0.8 1.64 1.64 2.44 c1.04 1 2.2 2.12 2.2 3.76 c0 1.72 -1.36 3.08 -3.08 3.08 z"></path></g><g id="SvgjsG14819" featureKey="sloganFeature-0" transform="matrix(1,0,0,1,156.4000004529953,110.78000020980835)" fill="url(#SvgjsLinearGradient14830)"><path d="M2.96 12.3 l4.24 0 c2.02 0 3.58 -0.84 3.58 -2.86 c0 -2.16 -1.68 -2.68 -3.5 -2.68 l-4.32 0 l0 5.54 z M7.24 13.46 l-4.28 0 l0 6.54 l-1.36 0 l0 -14.4 l5.64 0 c3.16 0 4.9 1.12 4.9 3.78 c0 1.82 -0.68 2.78 -2.34 3.52 c1.7 0.58 1.8 2.38 1.84 3.9 c0.06 2.18 0.24 2.78 0.6 3.06 l0 0.14 l-1.5 0 c-0.56 -0.98 -0.42 -3.68 -0.64 -4.78 c-0.32 -1.56 -1.5 -1.76 -2.86 -1.76 z M24.740000000000002 20 l-9.78 0 l0 -14.4 l9.58 0 l0 1.16 l-8.22 0 l0 5.2 l7.42 0 l0 1.16 l-7.42 0 l0 5.72 l8.42 0 l0 1.16 z M36.82 20 l-8.28 -12.56 l-0.04 0 l0 12.56 l-1.36 0 l0 -14.4 l1.54 0 l8.32 12.58 l0.04 0 l0 -12.58 l1.36 0 l0 14.4 l-1.58 0 z M40.32 6.76 l0 -1.16 l10.48 0 l0 1.16 l-4.56 0 l0 13.24 l-1.36 0 l0 -13.24 l-4.56 0 z M59.52000000000001 20 l-1.36 0 l0 -14.4 l9.28 0 l0 1.16 l-7.92 0 l0 5.2 l7.2 0 l0 1.16 l-7.2 0 l0 6.88 z M68.86000000000001 12.82 c-0.02 -4.2 2.34 -7.6 6.64 -7.6 c4.5 0 6.78 3.38 6.78 7.6 c0 4.14 -2.28 7.56 -6.72 7.56 s-6.7 -3.42 -6.7 -7.56 z M75.58000000000001 19.22 c3.74 0 5.34 -3.04 5.34 -6.4 c0 -4 -2.06 -6.44 -5.38 -6.44 c-3.7 0 -5.32 3.1 -5.32 6.44 c0 3.4 1.6 6.4 5.36 6.4 z M86.32000000000001 12.3 l4.24 0 c2.02 0 3.58 -0.84 3.58 -2.86 c0 -2.16 -1.68 -2.68 -3.5 -2.68 l-4.32 0 l0 5.54 z M90.60000000000001 13.46 l-4.28 0 l0 6.54 l-1.36 0 l0 -14.4 l5.64 0 c3.16 0 4.9 1.12 4.9 3.78 c0 1.82 -0.68 2.78 -2.34 3.52 c1.7 0.58 1.8 2.38 1.84 3.9 c0.06 2.18 0.24 2.78 0.6 3.06 l0 0.14 l-1.5 0 c-0.56 -0.98 -0.42 -3.68 -0.64 -4.78 c-0.32 -1.56 -1.5 -1.76 -2.86 -1.76 z M105.18000000000002 20 l-1.36 0 l0 -14.4 l5.26 0 c3.74 0 4.7 1.86 4.7 4.02 c0 3.22 -2.86 4.02 -5.52 4.02 l-3.08 0 l0 6.36 z M105.18000000000002 12.48 l3.12 0 c2.54 0 4.12 -0.52 4.12 -2.96 c0 -1.8 -1.16 -2.76 -3.72 -2.76 l-3.52 0 l0 5.72 z M125.18000000000002 20 l-9.08 0 l0 -14.4 l1.36 0 l0 13.24 l7.72 0 l0 1.16 z M137.00000000000003 20 l-9.78 0 l0 -14.4 l9.58 0 l0 1.16 l-8.22 0 l0 5.2 l7.42 0 l0 1.16 l-7.42 0 l0 5.72 l8.42 0 l0 1.16 z M139.52 20 l-1.4 0 l5.66 -14.4 l1.54 0 l5.52 14.4 l-1.4 0 l-1.66 -4.52 l-6.56 0 z M144.50000000000003 6.76 l-2.82 7.56 l5.64 0 z M152.02000000000004 15.7 l1.32 0 c0.22 2.58 1.94 3.52 4.14 3.52 c2.58 0 3.66 -1.4 3.66 -2.98 c0 -4.46 -8.78 -1.5 -8.78 -7.16 c0 -2 1.66 -3.86 4.88 -3.86 c3.24 0 4.86 1.96 4.84 4.3 l-1.3 0 c0 -2.2 -1.7 -3.14 -3.54 -3.14 c-2.76 0 -3.76 1.7 -3.52 3.18 c0.62 3.72 8.78 1.04 8.78 6.62 c0 2.64 -1.94 4.2 -5.26 4.2 c-3 0 -5.22 -1.56 -5.22 -4.68 z M165.02 14.58 l0 -8.98 l1.36 0 l0 8.58 c0 3.56 1.28 5.04 4.22 5.04 c3.1 0 4.22 -1.64 4.22 -5.04 l0 -8.58 l1.36 0 l0 8.98 c0 3.74 -1.86 5.8 -5.58 5.8 c-3.76 0 -5.58 -2.12 -5.58 -5.8 z M180.78000000000003 12.3 l4.24 0 c2.02 0 3.58 -0.84 3.58 -2.86 c0 -2.16 -1.68 -2.68 -3.5 -2.68 l-4.32 0 l0 5.54 z M185.06000000000003 13.46 l-4.28 0 l0 6.54 l-1.36 0 l0 -14.4 l5.64 0 c3.16 0 4.9 1.12 4.9 3.78 c0 1.82 -0.68 2.78 -2.34 3.52 c1.7 0.58 1.8 2.38 1.84 3.9 c0.06 2.18 0.24 2.78 0.6 3.06 l0 0.14 l-1.5 0 c-0.56 -0.98 -0.42 -3.68 -0.64 -4.78 c-0.32 -1.56 -1.5 -1.76 -2.86 -1.76 z M202.56000000000003 20 l-9.78 0 l0 -14.4 l9.58 0 l0 1.16 l-8.22 0 l0 5.2 l7.42 0 l0 1.16 l-7.42 0 l0 5.72 l8.42 0 l0 1.16 z"></path></g>
			</g>
		</svg>
	